# xmcd
#
# Track frame offsets:
#	150
#	17363
#	31523
#
# Disc length: 730 seconds
#
# Revision: 1
# Processed by: cddbd v1.5.2PL0 Copyright (c) Steve Scherf et al.
# Submitted via: EasyCDDAExtractor 10.0.3.1
#
DISCID=0e02d803
DTITLE=Various Artist - HIP-HOP SINGLE
DYEAR=2004
DGENRE=JPop
TTITLE0=MEZO and LIBER - Żeby Nie Było - RADIO VERSION
TTITLE1=ASCETOHOLIX - Gra Świateł - RADIO VERSION
TTITLE2=OWAL EMCEDEWA and ASCETOHOLIX - Jestem Tu - RADIO VERSION
EXTD=YEAR: 2004
EXTT0=
EXTT1=
EXTT2=
PLAYORDER=
